<mxfile host="app.diagrams.net" modified="2023-05-14T13:43:53.272Z" agent="Mozilla/5.0 (Windows NT 10.0; Win64; x64) AppleWebKit/537.36 (KHTML, like Gecko) Chrome/113.0.0.0 Safari/537.36" etag="I8TSmnQRxLgyvfwlgeJn" version="21.3.0" type="device">
  <diagram name="Страница 1" id="zGOE8hxgVlQAxHdQMpBq">
    <mxGraphModel dx="2074" dy="1148" grid="1" gridSize="10" guides="1" tooltips="1" connect="1" arrows="1" fold="1" page="1" pageScale="1" pageWidth="827" pageHeight="1169" math="0" shadow="0">
      <root>
        <mxCell id="0" />
        <mxCell id="1" parent="0" />
        <mxCell id="7RVkZrtSHZtAN3LL8rBW-3" style="edgeStyle=orthogonalEdgeStyle;rounded=0;orthogonalLoop=1;jettySize=auto;html=1;entryX=0.5;entryY=0;entryDx=0;entryDy=0;" edge="1" parent="1" source="7RVkZrtSHZtAN3LL8rBW-1" target="7RVkZrtSHZtAN3LL8rBW-2">
          <mxGeometry relative="1" as="geometry" />
        </mxCell>
        <mxCell id="7RVkZrtSHZtAN3LL8rBW-1" value="Начало&lt;br&gt;makeTree" style="ellipse;whiteSpace=wrap;html=1;" vertex="1" parent="1">
          <mxGeometry x="354" y="10" width="120" height="80" as="geometry" />
        </mxCell>
        <mxCell id="7RVkZrtSHZtAN3LL8rBW-5" style="edgeStyle=orthogonalEdgeStyle;rounded=0;orthogonalLoop=1;jettySize=auto;html=1;entryX=0.5;entryY=0;entryDx=0;entryDy=0;" edge="1" parent="1" source="7RVkZrtSHZtAN3LL8rBW-2" target="7RVkZrtSHZtAN3LL8rBW-4">
          <mxGeometry relative="1" as="geometry" />
        </mxCell>
        <mxCell id="7RVkZrtSHZtAN3LL8rBW-2" value="freeTree(Node)" style="rounded=0;whiteSpace=wrap;html=1;" vertex="1" parent="1">
          <mxGeometry x="354" y="110" width="120" height="60" as="geometry" />
        </mxCell>
        <mxCell id="7RVkZrtSHZtAN3LL8rBW-7" style="edgeStyle=orthogonalEdgeStyle;rounded=0;orthogonalLoop=1;jettySize=auto;html=1;entryX=0.5;entryY=0;entryDx=0;entryDy=0;" edge="1" parent="1" source="7RVkZrtSHZtAN3LL8rBW-4" target="7RVkZrtSHZtAN3LL8rBW-6">
          <mxGeometry relative="1" as="geometry" />
        </mxCell>
        <mxCell id="7RVkZrtSHZtAN3LL8rBW-4" value="&lt;div style=&quot;font-size: 14px; line-height: 19px;&quot;&gt;&lt;span style=&quot;background-color: rgb(255, 255, 255);&quot;&gt;Node = addTrain(Node)&lt;/span&gt;&lt;/div&gt;" style="rounded=0;whiteSpace=wrap;html=1;" vertex="1" parent="1">
          <mxGeometry x="354" y="210" width="120" height="60" as="geometry" />
        </mxCell>
        <mxCell id="7RVkZrtSHZtAN3LL8rBW-9" style="edgeStyle=orthogonalEdgeStyle;rounded=0;orthogonalLoop=1;jettySize=auto;html=1;entryX=0.5;entryY=0;entryDx=0;entryDy=0;" edge="1" parent="1" source="7RVkZrtSHZtAN3LL8rBW-6" target="7RVkZrtSHZtAN3LL8rBW-8">
          <mxGeometry relative="1" as="geometry" />
        </mxCell>
        <mxCell id="7RVkZrtSHZtAN3LL8rBW-6" value="choice" style="shape=parallelogram;perimeter=parallelogramPerimeter;whiteSpace=wrap;html=1;fixedSize=1;" vertex="1" parent="1">
          <mxGeometry x="354" y="300" width="120" height="60" as="geometry" />
        </mxCell>
        <mxCell id="7RVkZrtSHZtAN3LL8rBW-10" value="TRUE" style="edgeStyle=orthogonalEdgeStyle;rounded=0;orthogonalLoop=1;jettySize=auto;html=1;" edge="1" parent="1" source="7RVkZrtSHZtAN3LL8rBW-8">
          <mxGeometry x="-0.9012" relative="1" as="geometry">
            <mxPoint x="414" y="190" as="targetPoint" />
            <Array as="points">
              <mxPoint x="331" y="420" />
            </Array>
            <mxPoint as="offset" />
          </mxGeometry>
        </mxCell>
        <mxCell id="7RVkZrtSHZtAN3LL8rBW-12" style="edgeStyle=orthogonalEdgeStyle;rounded=0;orthogonalLoop=1;jettySize=auto;html=1;" edge="1" parent="1" source="7RVkZrtSHZtAN3LL8rBW-8" target="7RVkZrtSHZtAN3LL8rBW-11">
          <mxGeometry relative="1" as="geometry" />
        </mxCell>
        <mxCell id="7RVkZrtSHZtAN3LL8rBW-8" value="choice" style="rhombus;whiteSpace=wrap;html=1;" vertex="1" parent="1">
          <mxGeometry x="374" y="380" width="80" height="80" as="geometry" />
        </mxCell>
        <mxCell id="7RVkZrtSHZtAN3LL8rBW-11" value="Конец" style="ellipse;whiteSpace=wrap;html=1;" vertex="1" parent="1">
          <mxGeometry x="354" y="480" width="120" height="80" as="geometry" />
        </mxCell>
      </root>
    </mxGraphModel>
  </diagram>
</mxfile>
